<svg height="734" width="720" xmlns="http://www.w3.org/2000/svg">
<rect height="734" fill="#555" width="720"></rect>
<text fill="#7f7" font-family="Courier New" font-size="12" xml:space="preserve">
<tspan x="10" y="26">8 megabytes installed</tspan>
<tspan x="10" y="42"></tspan>
<tspan x="10" y="58">node_modules</tspan>
<tspan x="10" y="74">├── UNMET PEER DEPENDENCY grunt@&gt;=0.4.0</tspan>
<tspan x="10" y="90">└─┬ grunt-contrib-jshint@1.1.0 </tspan>
<tspan x="10" y="106">  ├─┬ chalk@1.1.3 </tspan>
<tspan x="10" y="122">  │ ├── ansi-styles@2.2.1 </tspan>
<tspan x="10" y="138">  │ ├── escape-string-regexp@1.0.5 </tspan>
<tspan x="10" y="154">  │ ├─┬ has-ansi@2.0.0 </tspan>
<tspan x="10" y="170">  │ │ └── ansi-regex@2.1.1 </tspan>
<tspan x="10" y="186">  │ ├── strip-ansi@3.0.1 </tspan>
<tspan x="10" y="202">  │ └── supports-color@2.0.0 </tspan>
<tspan x="10" y="218">  ├── hooker@0.2.3 </tspan>
<tspan x="10" y="234">  └─┬ jshint@2.9.4 </tspan>
<tspan x="10" y="250">    ├─┬ cli@1.0.1 </tspan>
<tspan x="10" y="266">    │ └─┬ glob@7.1.1 </tspan>
<tspan x="10" y="282">    │   ├── fs.realpath@1.0.0 </tspan>
<tspan x="10" y="298">    │   ├─┬ inflight@1.0.6 </tspan>
<tspan x="10" y="314">    │   │ └── wrappy@1.0.2 </tspan>
<tspan x="10" y="330">    │   ├── inherits@2.0.3 </tspan>
<tspan x="10" y="346">    │   ├── once@1.4.0 </tspan>
<tspan x="10" y="362">    │   └── path-is-absolute@1.0.1 </tspan>
<tspan x="10" y="378">    ├─┬ console-browserify@1.1.0 </tspan>
<tspan x="10" y="394">    │ └── date-now@0.1.4 </tspan>
<tspan x="10" y="410">    ├── exit@0.1.2 </tspan>
<tspan x="10" y="426">    ├─┬ htmlparser2@3.8.3 </tspan>
<tspan x="10" y="442">    │ ├── domelementtype@1.3.0 </tspan>
<tspan x="10" y="458">    │ ├── domhandler@2.3.0 </tspan>
<tspan x="10" y="474">    │ ├─┬ domutils@1.5.1 </tspan>
<tspan x="10" y="490">    │ │ └─┬ dom-serializer@0.1.0 </tspan>
<tspan x="10" y="506">    │ │   ├── domelementtype@1.1.3 </tspan>
<tspan x="10" y="522">    │ │   └── entities@1.1.1 </tspan>
<tspan x="10" y="538">    │ ├── entities@1.0.0 </tspan>
<tspan x="10" y="554">    │ └─┬ readable-stream@1.1.14 </tspan>
<tspan x="10" y="570">    │   ├── core-util-is@1.0.2 </tspan>
<tspan x="10" y="586">    │   ├── isarray@0.0.1 </tspan>
<tspan x="10" y="602">    │   └── string_decoder@0.10.31 </tspan>
<tspan x="10" y="618">    ├── lodash@3.7.0 </tspan>
<tspan x="10" y="634">    ├─┬ minimatch@3.0.3 </tspan>
<tspan x="10" y="650">    │ └─┬ brace-expansion@1.1.7 </tspan>
<tspan x="10" y="666">    │   ├── balanced-match@0.4.2 </tspan>
<tspan x="10" y="682">    │   └── concat-map@0.0.1 </tspan>
<tspan x="10" y="698">    ├── shelljs@0.3.0 </tspan>
<tspan x="10" y="714">    └── strip-json-comments@1.0.4</tspan>
</text>
</svg>
